<svg id="Layer_1" data-name="Layer 1" xmlns="http://www.w3.org/2000/svg" viewBox="0 0 316.408 194.285">
  <defs>
    <style>
      .cls-1 {
        fill: #1a1818;
      }

      .cls-2 {
        fill: #e71618;
      }
    </style>
  </defs>
  <title>cfilmsshirtlogool</title>
  <path class="cls-1" d="M372.413,341.3v53.46H336.773V252.2h89.1v35.64H377.692c-5.06,0-7.479,2.86-7.479,8.58,0,6.16,2.42,9.24,7.479,9.24h48.181V341.3Z" transform="translate(-242.432 -200.474)"/>
  <path class="cls-1" d="M434.217,341.307V305.755h11.851v35.551Z" transform="translate(-242.432 -200.474)"/>
  <path class="cls-1" d="M454.7,341.307v-47.4h11.85v47.4Z" transform="translate(-242.432 -200.474)"/>
  <path class="cls-1" d="M508.391,341.307V319.068q0-2.413-3.072-2.413-2.854,0-2.853,1.975v22.677H490.615V319.068q0-2.413-3.072-2.413-2.854,0-2.854,2.413v22.238H472.84V305.755h35.7a12.3,12.3,0,0,1,8.339,2.707,10.03,10.03,0,0,1,3.365,8.047v24.8Z" transform="translate(-242.432 -200.474)"/>
  <path class="cls-1" d="M546.793,317.605v11.851a11.74,11.74,0,0,1-11.851,11.851h-11.85V329.456h11.85V317.605a11.538,11.538,0,0,1,3.438-8.412,11.656,11.656,0,0,1,8.412-3.438h11.851v11.85Z" transform="translate(-242.432 -200.474)"/>
  <circle class="cls-2" cx="197.687" cy="96.493" r="7.288"/>
  <path class="cls-2" d="M363.115,278.905H324.152a18.465,18.465,0,0,0-6.831-12.144,19.858,19.858,0,0,0-13.409-4.807,20.485,20.485,0,0,0-14.421,5.819,19.855,19.855,0,0,0-6.072,14.674,18.913,18.913,0,0,0,6.072,14.421,20.471,20.471,0,0,0,29.349-.253h35.927c-12.144,17.963-29.1,26.819-50.854,26.819a61.332,61.332,0,0,1-61.48-61.48,61.332,61.332,0,0,1,61.48-61.48c17.2,0,31.626,6.072,43.518,17.963a59.6,59.6,0,0,1,17.963,43.517A63.654,63.654,0,0,1,363.115,278.905Z" transform="translate(-242.432 -200.474)"/>
  <path class="cls-1" d="M380.489,345.467c0-.153-.125-.23-.375-.23h-2.952v1.21h1.863a1.085,1.085,0,0,0,.3-.03c.064-.019.1-.074.1-.163h.218v1.282H379.4a.116.116,0,0,0-.1-.163,1.767,1.767,0,0,0-.375-.03h-1.767v1.428h3.1a.42.42,0,0,0,.242-.066.2.2,0,0,0,.1-.176h.218v1.27H380.6a.106.106,0,0,0-.1-.121,2.07,2.07,0,0,0-.242-.012h-4.441v-.218a.21.21,0,0,0,.121-.042.16.16,0,0,0,.061-.14V344.74a.158.158,0,0,0-.061-.139.212.212,0,0,0-.121-.043v-.218h4.3q.375,0,.375-.218h.218v1.344Z" transform="translate(-242.432 -200.474)"/>
  <path class="cls-1" d="M382.9,347.814a1,1,0,0,1-.006.1,1.065,1.065,0,0,0-.006.114.416.416,0,0,0,.23.333,2.233,2.233,0,0,0,.55.254,5.313,5.313,0,0,0,.642.164,2.9,2.9,0,0,0,.5.06q.169,0,.418-.023a2.323,2.323,0,0,0,.49-.1,1.233,1.233,0,0,0,.411-.218.454.454,0,0,0,.169-.369.407.407,0,0,0-.3-.387,3.225,3.225,0,0,0-.744-.187c-.3-.044-.621-.089-.968-.133a5.059,5.059,0,0,1-.968-.218,1.967,1.967,0,0,1-.744-.437,1.058,1.058,0,0,1-.3-.8,1.443,1.443,0,0,1,.641-1.234,3.055,3.055,0,0,1,1.8-.46,4.517,4.517,0,0,1,.974.091,4.826,4.826,0,0,1,.684.2q.278.11.454.2a.656.656,0,0,0,.26.091.284.284,0,0,0,.145-.03c.032-.02.073-.043.121-.067l.133.134-.6,1.137-.218-.072c-.008-.048-.016-.1-.024-.145a.248.248,0,0,0-.109-.145,2.04,2.04,0,0,0-.75-.351,4.141,4.141,0,0,0-1.137-.145,3.3,3.3,0,0,0-.46.03,1.506,1.506,0,0,0-.387.1.713.713,0,0,0-.266.188.428.428,0,0,0-.1.284.4.4,0,0,0,.3.382,3.536,3.536,0,0,0,.744.181c.3.045.621.089.968.134a4.724,4.724,0,0,1,.968.224,1.9,1.9,0,0,1,.744.46,1.14,1.14,0,0,1,.3.835,1.391,1.391,0,0,1-.26.871,1.845,1.845,0,0,1-.647.532,2.652,2.652,0,0,1-.853.254,6.891,6.891,0,0,1-.877.06,4.328,4.328,0,0,1-.817-.078,7.213,7.213,0,0,1-.738-.182c-.222-.068-.409-.134-.562-.193a1.268,1.268,0,0,0-.278-.091.18.18,0,0,0-.145.072l-.169-.121.557-1.356Z" transform="translate(-242.432 -200.474)"/>
  <path class="cls-1" d="M390.544,349.447a.21.21,0,0,0,.121-.042.16.16,0,0,0,.06-.14v-4.029h-1.573a.359.359,0,0,0-.181.049.167.167,0,0,0-.085.157h-.218v-1.392h.218a.264.264,0,0,0,.085.229.3.3,0,0,0,.181.061h4.308a.3.3,0,0,0,.182-.061.265.265,0,0,0,.084-.229h.218v1.392h-.218a.167.167,0,0,0-.084-.157.362.362,0,0,0-.182-.049h-1.573v4.029c0,.121.072.182.218.182v.218h-1.561Z" transform="translate(-242.432 -200.474)"/>
  <path class="cls-1" d="M403.748,349.8h-.125c0-.076-.033-.118-.1-.125a2.067,2.067,0,0,0-.214-.011h-4.4a.909.909,0,0,0-.188.016c-.049.011-.073.047-.073.109h-.125v-.376a1.623,1.623,0,0,1,.276-.951,2.936,2.936,0,0,1,.7-.7,5.825,5.825,0,0,1,.9-.532q.48-.23.9-.455a3.78,3.78,0,0,0,.7-.465.728.728,0,0,0,.277-.564.609.609,0,0,0-.1-.36.774.774,0,0,0-.256-.229,1.027,1.027,0,0,0-.345-.12A2.177,2.177,0,0,0,401.2,345a1.933,1.933,0,0,0-.439.064,2.157,2.157,0,0,0-.5.188,1.711,1.711,0,0,0-.413.3.544.544,0,0,0-.172.393.507.507,0,0,0,.025.136.217.217,0,0,0,.068.114l-.1.073-1.076-1.149.1-.073.083.042a.215.215,0,0,0,.095.021c.042,0,.118-.052.229-.156a3.213,3.213,0,0,1,.46-.345,3.56,3.56,0,0,1,.731-.345,3.112,3.112,0,0,1,1.045-.157,3.246,3.246,0,0,1,.778.094,2.081,2.081,0,0,1,.68.3,1.592,1.592,0,0,1,.48.522,1.545,1.545,0,0,1,.183.779,1.606,1.606,0,0,1-.187.814,1.776,1.776,0,0,1-.5.549,3.231,3.231,0,0,1-.7.382q-.387.157-.789.308t-.773.319a2.4,2.4,0,0,0-.653.429v.1h3.449a.557.557,0,0,0,.214-.042c.066-.028.1-.111.1-.251h.125Z" transform="translate(-242.432 -200.474)"/>
  <path class="cls-1" d="M407.594,344.105a3.072,3.072,0,0,1,1.134.209,2.815,2.815,0,0,1,.919.585,2.873,2.873,0,0,1,.617,3.145,2.674,2.674,0,0,1-1.536,1.453,3.34,3.34,0,0,1-2.268,0,2.667,2.667,0,0,1-1.536-1.453,2.812,2.812,0,0,1,.616-3.145,2.819,2.819,0,0,1,.92-.585A3.064,3.064,0,0,1,407.594,344.105Zm0,.9a1.585,1.585,0,0,0-.68.147,1.625,1.625,0,0,0-.538.4,1.941,1.941,0,0,0-.356.606,2.272,2.272,0,0,0,0,1.515,1.929,1.929,0,0,0,.356.606,1.613,1.613,0,0,0,.538.4,1.648,1.648,0,0,0,1.358,0,1.614,1.614,0,0,0,.538-.4,1.912,1.912,0,0,0,.355-.606,2.256,2.256,0,0,0,0-1.515,1.924,1.924,0,0,0-.355-.606,1.626,1.626,0,0,0-.538-.4A1.584,1.584,0,0,0,407.594,345Z" transform="translate(-242.432 -200.474)"/>
  <path class="cls-1" d="M413.184,349.54a.3.3,0,0,0,.184-.058.281.281,0,0,0,.078-.235v-3.49a1.717,1.717,0,0,0-.173.011,1.177,1.177,0,0,0-.193.036.7.7,0,0,0-.172.073.248.248,0,0,0-.109.131h-.126V344.69h.126a.131.131,0,0,0,.094.131.492.492,0,0,0,.178.037.426.426,0,0,0,.3-.11.348.348,0,0,0,.12-.267c0-.1-.022-.16-.068-.187a.52.52,0,0,0-.183-.062v-.126h1.693v.126a.572.572,0,0,0-.209.072.173.173,0,0,0-.084.157v4.786a.268.268,0,0,0,.084.235.325.325,0,0,0,.188.058v.125h-1.725Z" transform="translate(-242.432 -200.474)"/>
  <path class="cls-1" d="M418.055,345.13a.533.533,0,0,0-.214.042c-.066.027-.1.1-.1.219h-.126v-1.41h.126a.144.144,0,0,0,.1.156.682.682,0,0,0,.214.031h4.389q.313,0,.313-.187h.126v.941l-2.445,3.939c-.07.111-.136.211-.2.3a.4.4,0,0,0-.094.214c0,.112.066.168.2.168v.125h-1.881v-.125a.375.375,0,0,0,.2-.089.761.761,0,0,0,.193-.2l2.623-4.117Z" transform="translate(-242.432 -200.474)"/>
  <path class="cls-1" d="M551.186,340.962c0,.093.057.139.17.139v.139H550.17V341.1a.151.151,0,0,0,.1-.034.128.128,0,0,0,.042-.1V337.9h-1.271a.266.266,0,0,0-.135.038.158.158,0,0,0-.065.147H548.7V337h.138a.156.156,0,0,0,.065.147.259.259,0,0,0,.135.039h3.419a.254.254,0,0,0,.135-.039.154.154,0,0,0,.066-.147h.139v1.078h-.139a.156.156,0,0,0-.066-.147.261.261,0,0,0-.135-.038h-1.27Z" transform="translate(-242.432 -200.474)"/>
  <path class="cls-1" d="M553.781,341.1a.177.177,0,0,0,.107-.034.123.123,0,0,0,.047-.1v-3.511a.1.1,0,0,0-.047-.1.211.211,0,0,0-.107-.026v-.139h1.439v.139a.161.161,0,0,0-.08.022.076.076,0,0,0-.043.069.24.24,0,0,0,.031.1c.02.041.043.084.069.131l1.1,2,1.109-1.979c.035-.066.063-.119.08-.157a.246.246,0,0,0,.027-.1c0-.057-.033-.084-.1-.084v-.139h1.425v.139a.211.211,0,0,0-.107.026.1.1,0,0,0-.047.1v3.511a.123.123,0,0,0,.047.1.177.177,0,0,0,.107.034v.139h-1.209V341.1c.139,0,.208-.046.208-.139v-2.557h-.016l-1.547,2.834h-.023l-1.517-2.841h-.016v2.564c0,.093.071.139.216.139v.139h-1.155Z" transform="translate(-242.432 -200.474)"/>
</svg>
